<svg width="730" height="536" viewBox="0 0 730 536" fill="none" xmlns="http://www.w3.org/2000/svg">
<path d="M510.1 46.5681C576.231 32.4226 613.281 -14.7185 678.1 4.56807C800.124 40.8758 742.939 221.006 678.1 330.568C668.389 346.978 661.578 355.342 650.1 370.568C610.199 423.497 589.1 458.738 532.1 492.568C453.149 539.426 391.309 541.046 300.1 530.568C202.797 519.39 135.062 503.868 70.0999 430.568C28.6277 383.773 2.11369 349.063 0.0998812 286.568C-2.71893 199.091 54.5178 154.182 122.1 98.5681C240.147 1.42608 360.603 78.5453 510.1 46.5681Z" fill="#321659"/>
<g clip-path="url(#clip0_3_76)">
<path d="M314.741 331.642H257.246C255.796 331.642 254.617 330.463 254.617 329.014C254.617 327.565 255.796 326.387 257.246 326.387H314.741C316.19 326.387 317.369 327.565 317.369 329.014C317.369 330.463 316.19 331.642 314.741 331.642Z" fill="#6C63FF"/>
<path d="M212.057 345.708C212.057 346.18 212.436 346.559 212.909 346.559H359.077C359.55 346.559 359.929 346.18 359.929 345.708C359.929 345.236 359.55 344.857 359.077 344.857H212.909C212.436 344.857 212.057 345.236 212.057 345.708Z" fill="#3F3D56"/>
<path d="M520.45 174.223C546.135 174.223 566.957 153.409 566.957 127.735C566.957 102.06 546.135 81.246 520.45 81.246C494.765 81.246 473.943 102.06 473.943 127.735C473.943 153.409 494.765 174.223 520.45 174.223Z" fill="#FF6884"/>
<path d="M173 404.452C173 404.924 173.379 405.303 173.851 405.303H547.548C548.02 405.303 548.399 404.924 548.399 404.452C548.399 403.98 548.02 403.601 547.548 403.601H173.851C173.379 403.601 173 403.98 173 404.452Z" fill="#3F3D56"/>
<path d="M178.405 346.977L177.21 345.668L293.882 239.247L335.916 258.083L381.307 180.273L418.601 162.304L453.154 219.869C471.809 171.594 518.593 121.086 574.652 69.843L576.032 70.9591C523.453 121.277 478.467 171.824 452.937 222.955L420.977 169.553C419.467 167.03 416.294 166.056 413.628 167.296C393.243 176.777 376.24 192.253 364.892 211.655L336.458 260.269L329.968 257.36C308.261 247.634 282.85 251.71 265.278 267.738L178.405 346.977Z" fill="#3F3D56"/>
<path d="M577.283 79.5316L575.511 79.6545L572.653 73.4626L566.254 72.1633L566.005 70.4058L576.554 68.9073L577.283 79.5316Z" fill="#3F3D56"/>
<path d="M395.293 117.419L401.565 93.3185L425.997 92.1437L433.307 125.366L395.293 117.419Z" fill="#FFB6B6"/>
<path opacity="0.1" d="M395.293 117.419L401.565 93.3185L425.997 92.1437L433.307 125.366L395.293 117.419Z" fill="black"/>
<path d="M411.37 106.806C427.657 106.806 440.86 93.6079 440.86 77.3276C440.86 61.0472 427.657 47.8494 411.37 47.8494C395.083 47.8494 381.88 61.0472 381.88 77.3276C381.88 93.6079 395.083 106.806 411.37 106.806Z" fill="#FFB6B6"/>
<path d="M427.641 83.5672C427.641 83.5672 416.438 61.3796 403.312 62.6606C390.186 63.9416 383.271 65.4995 383.271 65.4995C383.271 65.4995 379.375 48.2188 397.719 41.5718C397.719 41.5718 374.395 18.5894 402.164 7.31551C429.933 -3.95837 445.472 10.42 445.472 10.42C445.472 10.42 466.027 30.9318 440.139 46.2625C440.139 46.2625 459.362 72.1092 436.088 93.4127C436.088 93.4127 441.293 76.1734 435.862 79.3527C430.43 82.5319 427.641 83.5672 427.641 83.5672Z" fill="#2F2E41"/>
<path d="M378.833 239.313L374.91 243.071L346.571 303.81L343.469 404.277H391.082L413.417 354.524L428.466 403.796H471.277L481.201 314.353L454.523 251.096L378.833 239.313Z" fill="#2F2E41"/>
<path d="M428.156 114.97H396.358L361.771 133.575L369.837 169.544C369.837 169.544 367.976 191.25 372.319 207.374C376.661 223.499 374.8 244.584 374.8 244.584L454.523 251.096L457.005 177.917L455.764 128.924L428.156 114.97Z" fill="#E6E6E6"/>
<path d="M367.045 133.885C367.045 133.885 347.812 134.505 344.71 146.908C341.608 159.312 339.126 223.189 339.126 223.189C339.126 223.189 340.988 261.092 361.772 243.07C382.555 225.049 380.694 170.475 380.694 170.475L367.045 133.885Z" fill="#E6E6E6"/>
<path d="M553.592 450.285H440.251C436.413 450.285 433.29 447.163 433.29 443.326V326.205C433.29 322.368 436.413 319.246 440.251 319.246H553.592C557.431 319.246 560.553 322.368 560.553 326.205V443.326C560.553 447.163 557.431 450.285 553.592 450.285Z" fill="white"/>
<path d="M553.592 451H440.251C436.018 451 432.574 447.558 432.574 443.326V326.205C432.574 321.974 436.018 318.531 440.251 318.531H553.592C557.825 318.531 561.269 321.974 561.269 326.205V443.326C561.269 447.558 557.825 451 553.592 451ZM440.251 319.962C436.807 319.962 434.005 322.762 434.005 326.205V443.326C434.005 446.769 436.807 449.57 440.251 449.57H553.592C557.036 449.57 559.838 446.769 559.838 443.326V326.205C559.838 322.762 557.036 319.962 553.592 319.962H440.251Z" fill="#3F3D56"/>
<path d="M501.394 419.516H492.053C490.915 419.516 489.99 418.802 489.99 417.924V377.722C489.99 376.844 490.915 376.13 492.053 376.13H501.394C502.532 376.13 503.457 376.844 503.457 377.722V417.924C503.457 418.802 502.532 419.516 501.394 419.516Z" fill="#6C63FF"/>
<path d="M470.51 395.824C469.591 395.824 468.844 396.401 468.844 397.11V417.88C468.844 418.588 469.591 419.165 470.51 419.165H479.852C480.771 419.165 481.518 418.588 481.518 417.88V397.11C481.518 396.401 480.771 395.824 479.852 395.824H470.51Z" fill="#6C63FF"/>
<path d="M522.937 419.516H513.595C512.458 419.516 511.532 418.802 511.532 417.924V352.039C511.532 351.162 512.458 350.448 513.595 350.448H522.937C524.074 350.448 524.999 351.162 524.999 352.039V417.924C524.999 418.802 524.074 419.516 522.937 419.516Z" fill="#6C63FF"/>
<path d="M321.913 130.716H311.242C309.943 130.716 308.886 129.901 308.886 128.898V82.975C308.886 81.9725 309.943 81.157 311.242 81.157H321.913C323.212 81.157 324.269 81.9725 324.269 82.975V128.898C324.269 129.901 323.212 130.716 321.913 130.716Z" fill="#6C63FF"/>
<path d="M286.634 103.653C285.585 103.653 284.73 104.312 284.73 105.122V128.847C284.73 129.657 285.585 130.316 286.634 130.316H297.305C298.355 130.316 299.209 129.657 299.209 128.847V105.122C299.209 104.312 298.355 103.653 297.305 103.653H286.634Z" fill="#6C63FF"/>
<path d="M346.52 130.716H335.85C334.55 130.716 333.493 129.901 333.493 128.898V53.6382C333.493 52.6358 334.55 51.8203 335.85 51.8203H346.52C347.82 51.8203 348.876 52.6358 348.876 53.6382V128.898C348.876 129.901 347.82 130.716 346.52 130.716Z" fill="#6C63FF"/>
<path d="M479.545 336.287C485.072 335.758 488.878 328.293 488.047 319.609C487.762 316.135 486.65 312.78 484.802 309.825L483.737 299.996L483.9 299.947L486.578 253.346C487.2 242.51 482.909 231.863 474.642 224.827C469.724 220.642 464.478 218.522 461.104 223.811C455.506 232.586 462.757 268.759 467.519 289.325L469.365 311.302C468.111 314.555 467.655 318.061 468.035 321.526C468.865 330.208 474.019 336.816 479.545 336.287Z" fill="#FFB6B6"/>
<path d="M448.94 130.164C448.94 130.164 465.071 123.962 472.516 142.567C479.961 161.172 488.026 252.956 488.026 252.956L450.181 246.135L448.94 130.164Z" fill="#E6E6E6"/>
<path d="M226.221 133.364H204.5C203.051 133.364 201.871 132.185 201.871 130.736C201.871 129.287 203.051 128.109 204.5 128.109H226.221C227.67 128.109 228.849 129.287 228.849 130.736C228.849 132.185 227.67 133.364 226.221 133.364Z" fill="#B0B0B0"/>
<path d="M226.221 96.1164H204.5C203.051 96.1164 201.871 94.9374 201.871 93.4885C201.871 92.0396 203.051 90.8611 204.5 90.8611H226.221C227.67 90.8611 228.849 92.0396 228.849 93.4885C228.849 94.9374 227.67 96.1164 226.221 96.1164Z" fill="#B0B0B0"/>
<path d="M226.221 69.2552H204.5C203.051 69.2552 201.871 68.0762 201.871 66.6273C201.871 65.1784 203.051 64 204.5 64H226.221C227.67 64 228.849 65.1784 228.849 66.6273C228.849 68.0763 227.67 69.2552 226.221 69.2552Z" fill="#B0B0B0"/>
<path d="M201 143.146C201 143.618 201.379 143.997 201.851 143.997H348.02C348.492 143.997 348.872 143.618 348.872 143.146C348.872 142.674 348.492 142.295 348.02 142.295H201.851C201.379 142.295 201 142.674 201 143.146Z" fill="#3F3D56"/>
<path d="M484.128 351.13C484.128 351.602 484.508 351.981 484.98 351.981H631.149C631.621 351.981 632 351.602 632 351.13C632 350.658 631.621 350.279 631.149 350.279H484.98C484.508 350.279 484.128 350.658 484.128 351.13Z" fill="#3F3D56"/>
<path d="M441.198 420.505C441.198 420.977 441.578 421.356 442.05 421.356H588.219C588.691 421.356 589.07 420.977 589.07 420.505C589.07 420.033 588.691 419.654 588.219 419.654H442.05C441.578 419.654 441.198 420.033 441.198 420.505Z" fill="#3F3D56"/>
<path d="M342.907 126.543C337.38 127.072 333.574 134.538 334.406 143.222C334.69 146.695 335.803 150.05 337.65 153.006L338.716 162.834L338.552 162.883L335.875 209.485C335.252 220.32 339.543 230.967 347.81 238.003C352.728 242.189 357.974 244.308 361.348 239.02C366.946 230.244 359.695 194.071 354.933 173.506L353.087 151.529C354.341 148.276 354.798 144.77 354.418 141.304C353.588 132.623 348.434 126.014 342.907 126.543Z" fill="#FFB6B6"/>
</g>
<defs>
<clipPath id="clip0_3_76">
<rect width="459" height="448" fill="white" transform="translate(173 3)"/>
</clipPath>
</defs>
</svg>
